<svg xmlns="http://www.w3.org/2000/svg" fill="none" viewBox="0 0 280 280">
  <path fill="#FF3D00" d="M139.579 279.158c77.088 0 139.579-62.491 139.579-139.579C279.158 62.492 216.667 0 139.579 0 62.492 0 0 62.492 0 139.579c0 77.088 62.492 139.579 139.579 139.579Z"/>
  <path fill="#000" d="m180.758 113.459-43.889.931-7.665 34.229c5.741-.126 11.489-.126 17.237-.212 3.438-.056 10.874-1.112 13.602.796 3.565 2.492 3.162 7.491.134 10.243l-49.668 54.518 13.964-61.615c-2.578-.165-5.196-.173-7.782-.126-3.217.063-10.527.923-13.216-.276-2.271-1.009-3.706-3.651-3.524-6.103l7.648-34.151 20.241-.489 6.127-26.99 46.278-.931c4.455.45 6.718 4.368 5.441 8.61l-4.905 21.566h-.023Z"/>
  <path fill="#000" d="M81.673 210.573c-.056-.418.457-.173.686-.126 1.979.473 4.313 1.577 6.347 2.216 21.519 6.758 60.235 13.397 80.516 1.782 13.089-7.499 17.3-26.281 9.714-39.079-2.957-4.983-7.428-9.052-11.875-12.679-.094-.079-.654-.426-.355-.544 5.378 3.524 10.638 7.333 15.534 11.496 13.854 11.765 34.293 34.868 11.584 49.424-12.924 8.288-32.503 8.974-47.367 7.31-22.496-2.515-44.259-10.755-64.784-19.8ZM180.332 72.938l-.686.118c-14.832-6.403-30.792-10.937-46.956-12.514-20.305-1.971-44.678-.536-48.25 24.278-1.79 12.42 4.66 20.652 13.224 28.553l-.332.11c-9.138-7.444-18.538-15.155-25.303-24.933C48.57 54.644 89.25 46.711 114.64 49.763c23.104 2.776 45.23 12.695 65.684 23.175h.008Z"/>
</svg>