<svg width="400" height="400" viewBox="0 0 400 400" fill="none" xmlns="http://www.w3.org/2000/svg">
<path d="M385.294 293.879C387.317 292.035 387.249 290.877 385.294 289.052C331.078 238.449 318.991 175.746 287.641 175.746C276.142 175.746 262.325 185.695 249.847 197.682C289.012 197.682 300.902 303.349 358.188 303.349C370.321 303.349 377.802 300.706 385.294 293.879Z" fill="#7371FC"/>
<path d="M15.4553 296.855C13.0515 297.507 12.5483 298.881 14.1056 300.831C40.2059 313.47 66.7751 313.47 83.4786 313.47C147.617 313.47 181.316 263.378 208.736 229.089C253.77 172.776 290.883 145.828 314.884 183.682C289.929 130.512 276.859 86.5298 249.847 86.5298C197.186 86.5298 156.515 266.749 15.4553 296.855Z" fill="#7371FC"/>
</svg>
