<svg width="141" height="44" viewBox="0 0 141 44" fill="none" xmlns="http://www.w3.org/2000/svg">
<path d="M41.7814 32.1804C42.0008 31.9805 41.9935 31.8549 41.7814 31.657C35.9023 26.1696 34.5916 19.3701 31.1919 19.3701C29.945 19.3701 28.4467 20.4489 27.0935 21.7488C31.3406 21.7488 32.6299 33.2073 38.8421 33.2073C40.1578 33.2073 40.969 32.9208 41.7814 32.1804Z" fill="#7371FC"/>
<path d="M1.67603 32.503C1.41536 32.5737 1.36079 32.7227 1.52967 32.9342C4.35999 34.3048 7.24116 34.3048 9.05248 34.3048C16.0076 34.3048 19.6619 28.8728 22.6354 25.1545C27.5189 19.0478 31.5434 16.1256 34.1461 20.2305C31.44 14.4648 30.0227 9.69531 27.0935 9.69531C21.383 9.69531 16.9726 29.2383 1.67603 32.503Z" fill="#7371FC"/>
<path d="M57.2563 32.3061V12.4581H58.5397L58.6734 16.1058L58.2991 16.4277C58.6199 15.5515 59.0923 14.8005 59.7161 14.1747C60.3578 13.531 61.1243 13.0303 62.0155 12.6727C62.9245 12.315 63.9049 12.1362 64.9565 12.1362C66.329 12.1362 67.5589 12.4491 68.6462 13.075C69.7335 13.7008 70.5979 14.5681 71.2396 15.6767C71.8813 16.7674 72.2021 18.0191 72.2021 19.4317C72.2021 20.8086 71.8902 22.0424 71.2664 23.1331C70.6603 24.2238 69.8048 25.0821 68.6996 25.708C67.5945 26.3338 66.3379 26.6467 64.9298 26.6467C63.8603 26.6467 62.88 26.4679 61.9887 26.1103C61.1153 25.7348 60.3667 25.2341 59.7429 24.6083C59.119 23.9646 58.6377 23.2136 58.2991 22.3553L58.5932 22.6771V32.3061H57.2563ZM64.7426 25.3057C65.919 25.3057 66.9618 25.0553 67.8708 24.5546C68.7799 24.0361 69.4928 23.3387 70.0097 22.4626C70.5445 21.5685 70.8029 20.5582 70.7851 19.4317C70.7851 18.2694 70.5177 17.2413 69.983 16.3472C69.4661 15.4532 68.7531 14.7558 67.8441 14.2551C66.935 13.7366 65.9012 13.4773 64.7426 13.4773C63.5306 13.4773 62.4522 13.7366 61.5075 14.2551C60.5628 14.7558 59.8231 15.4532 59.2883 16.3472C58.7714 17.2234 58.5041 18.2426 58.4862 19.4049C58.4862 20.5493 58.7536 21.5685 59.2883 22.4626C59.8231 23.3387 60.5539 24.0361 61.4807 24.5546C62.4254 25.0553 63.5127 25.3057 64.7426 25.3057Z" fill="#7371FC"/>
<path d="M83.5596 26.6736C82.0267 26.6736 80.6631 26.3696 79.4689 25.7616C78.2925 25.1537 77.3745 24.3043 76.715 23.2136C76.0555 22.1228 75.7257 20.8533 75.7257 19.4049C75.7257 18.3141 75.9129 17.3307 76.2872 16.4545C76.6793 15.5783 77.2141 14.8184 77.8914 14.1747C78.5687 13.5131 79.3708 13.0124 80.2977 12.6727C81.2246 12.315 82.2227 12.1362 83.2922 12.1362C84.3617 12.1362 85.3331 12.2972 86.2065 12.619C87.0799 12.923 87.8196 13.379 88.4257 13.9869C89.0495 14.577 89.5219 15.2833 89.8427 16.1058C90.1635 16.9284 90.3061 17.8403 90.2705 18.8416L90.2437 19.6731H76.7952V18.4393H89.5219L88.9604 18.8148L88.9337 18.1711C88.9337 17.4559 88.7108 16.7406 88.2652 16.0254C87.8375 15.2922 87.2047 14.6843 86.3669 14.2015C85.5292 13.7187 84.4954 13.4773 83.2655 13.4773C82.1425 13.4773 81.1176 13.6919 80.1908 14.121C79.2639 14.5323 78.5242 15.176 77.9716 16.0522C77.4191 16.9105 77.1428 18.0012 77.1428 19.3244C77.1428 20.5403 77.4102 21.5953 77.9449 22.4894C78.4796 23.3834 79.2372 24.0808 80.2175 24.5815C81.2157 25.0643 82.4188 25.3057 83.827 25.3057C84.7716 25.3057 85.645 25.1894 86.4471 24.957C87.2492 24.7066 88.1048 24.2507 89.0139 23.5891L89.6288 24.6351C89.1654 24.9927 88.6306 25.3325 88.0246 25.6543C87.4364 25.9762 86.768 26.2265 86.0194 26.4053C85.2886 26.5841 84.4686 26.6736 83.5596 26.6736Z" fill="#7371FC"/>
<path d="M95.6642 26.4053V12.4581H96.9475L97.0812 15.8376L96.7871 15.9985C97.0367 15.2833 97.4021 14.6396 97.8833 14.0674C98.3646 13.4773 98.935 13.0124 99.5945 12.6727C100.272 12.315 101.038 12.1362 101.894 12.1362C102.339 12.1362 102.767 12.1809 103.177 12.2703C103.587 12.3419 103.935 12.4402 104.22 12.5654L103.792 14.0674C103.489 13.8886 103.15 13.7723 102.776 13.7187C102.42 13.6472 102.099 13.6114 101.814 13.6114C100.994 13.6114 100.281 13.7455 99.6747 14.0137C99.0865 14.282 98.5874 14.6575 98.1774 15.1403C97.7853 15.6052 97.4912 16.1327 97.2951 16.7227C97.0991 17.2949 97.001 17.885 97.001 18.493V26.4053H95.6642Z" fill="#7371FC"/>
<path d="M108.928 32.3061V12.4581H110.211L110.345 16.1058L109.971 16.4277C110.292 15.5515 110.764 14.8005 111.388 14.1747C112.03 13.531 112.796 13.0303 113.687 12.6727C114.596 12.315 115.577 12.1362 116.628 12.1362C118.001 12.1362 119.231 12.4491 120.318 13.075C121.405 13.7008 122.27 14.5681 122.911 15.6767C123.553 16.7674 123.874 18.0191 123.874 19.4317C123.874 20.8086 123.562 22.0424 122.938 23.1331C122.332 24.2238 121.476 25.0821 120.371 25.708C119.266 26.3338 118.01 26.6467 116.602 26.6467C115.532 26.6467 114.552 26.4679 113.66 26.1103C112.787 25.7348 112.038 25.2341 111.415 24.6083C110.791 23.9646 110.309 23.2136 109.971 22.3553L110.265 22.6771V32.3061H108.928ZM116.414 25.3057C117.591 25.3057 118.633 25.0553 119.543 24.5546C120.452 24.0361 121.165 23.3387 121.681 22.4626C122.216 21.5685 122.475 20.5582 122.457 19.4317C122.457 18.2694 122.189 17.2413 121.655 16.3472C121.138 15.4532 120.425 14.7558 119.516 14.2551C118.607 13.7366 117.573 13.4773 116.414 13.4773C115.202 13.4773 114.124 13.7366 113.179 14.2551C112.235 14.7558 111.495 15.4532 110.96 16.3472C110.443 17.2234 110.176 18.2426 110.158 19.4049C110.158 20.5493 110.425 21.5685 110.96 22.4626C111.495 23.3387 112.226 24.0361 113.152 24.5546C114.097 25.0553 115.184 25.3057 116.414 25.3057Z" fill="#7371FC"/>
<path d="M133.975 26.6736C132.567 26.6736 131.31 26.4322 130.205 25.9494C129.1 25.4666 128.235 24.8586 127.611 24.1255L128.627 23.1867C129.198 23.902 129.946 24.4474 130.873 24.8229C131.8 25.1805 132.816 25.3593 133.921 25.3593C134.545 25.3593 135.124 25.3057 135.659 25.1984C136.212 25.0911 136.684 24.9391 137.076 24.7424C137.486 24.5457 137.807 24.2864 138.039 23.9646C138.27 23.6248 138.386 23.2404 138.386 22.8112C138.386 22.096 137.985 21.5059 137.183 21.041C136.791 20.8443 136.301 20.6566 135.713 20.4778C135.142 20.2811 134.465 20.1023 133.681 19.9413C132.611 19.6731 131.693 19.4317 130.927 19.2171C130.16 18.9847 129.554 18.6896 129.109 18.332C128.77 18.0459 128.512 17.7151 128.333 17.3396C128.173 16.9641 128.093 16.5439 128.093 16.079C128.093 15.5068 128.226 14.9793 128.494 14.4965C128.761 14.0137 129.144 13.5935 129.643 13.2359C130.16 12.8783 130.748 12.6101 131.408 12.4313C132.067 12.2346 132.807 12.1362 133.627 12.1362C134.358 12.1362 135.098 12.2346 135.846 12.4313C136.613 12.6101 137.326 12.8694 137.985 13.2091C138.663 13.5488 139.242 13.9512 139.723 14.4161L138.841 15.4353C138.413 15.0419 137.932 14.6932 137.397 14.3892C136.88 14.0674 136.301 13.8171 135.659 13.6382C135.035 13.4594 134.376 13.37 133.681 13.37C133.128 13.37 132.593 13.4326 132.076 13.5578C131.577 13.6651 131.141 13.8439 130.766 14.0942C130.392 14.3267 130.089 14.6038 129.857 14.9257C129.626 15.2475 129.51 15.6052 129.51 15.9985C129.492 16.3383 129.554 16.6244 129.697 16.8568C129.839 17.0714 130.044 17.2681 130.312 17.4469C130.686 17.6972 131.176 17.9118 131.782 18.0906C132.388 18.2516 133.137 18.4304 134.028 18.6271C134.866 18.8059 135.615 18.9847 136.274 19.1635C136.934 19.3423 137.495 19.5569 137.958 19.8072C138.564 20.147 139.019 20.5493 139.322 21.0142C139.643 21.4791 139.803 22.0245 139.803 22.6503C139.803 23.455 139.554 24.1613 139.055 24.7692C138.573 25.3593 137.896 25.8242 137.023 26.1639C136.149 26.5037 135.133 26.6736 133.975 26.6736Z" fill="#7371FC"/>
</svg>
